<svg width="16" height="16" viewBox="0 0 16 16" fill="none" xmlns="http://www.w3.org/2000/svg">
<path d="M15.2032 1.68053C14.9003 1.61553 14.6023 1.80851 14.5374 2.11131L14.1299 4.01296C12.8325 1.79959 10.451 0.410645 7.84099 0.410645C3.82144 0.410645 0.551315 3.68073 0.551315 7.70032C0.551315 8.00998 0.802349 8.26106 1.11206 8.26106C1.42172 8.26106 1.6728 8.00998 1.6728 7.70032C1.6728 4.29916 4.43983 1.53213 7.84099 1.53213C10.0583 1.53213 12.0809 2.71656 13.1759 4.60245L11.3064 4.20181C11.0035 4.1369 10.7055 4.32984 10.6407 4.63264C10.5758 4.93545 10.7687 5.23358 11.0715 5.29845L14.2806 5.98615C14.3351 5.99785 14.3904 6.00122 14.445 5.99664C14.536 5.98897 14.6246 5.95914 14.7027 5.90863C14.8275 5.82784 14.9152 5.70075 14.9464 5.55536L15.6341 2.34629C15.6989 2.04353 15.506 1.74548 15.2032 1.68053Z" fill="white"/>
<path d="M15.4165 6.9652C15.107 6.97543 14.8643 7.23463 14.8746 7.54411C14.9289 9.19082 14.3389 10.7601 13.2129 11.963C12.087 13.1657 10.56 13.8582 8.91336 13.9126C8.84473 13.9148 8.77645 13.9159 8.70809 13.9159C6.5595 13.9158 4.5802 12.7999 3.46239 10.992L5.41141 11.5146C5.71053 11.5948 6.01804 11.4173 6.09825 11.1182C6.17846 10.819 6.00099 10.5116 5.70187 10.4313L2.53192 9.58137C2.38828 9.54292 2.23517 9.56302 2.10643 9.63731C1.97759 9.71159 1.88361 9.8341 1.84507 9.97774L0.99521 13.1478C0.915001 13.4469 1.09247 13.7544 1.39159 13.8346C1.44026 13.8477 1.48907 13.854 1.53716 13.854C1.78469 13.854 2.01128 13.6887 2.07843 13.4383L2.55614 11.6566C3.88506 13.7491 6.19824 15.0375 8.70782 15.0374C8.78843 15.0374 8.86949 15.0361 8.95042 15.0334C10.8965 14.9691 12.701 14.1508 14.0317 12.7293C15.3624 11.3078 16.0598 9.4532 15.9955 7.50711C15.9853 7.19766 15.726 6.95421 15.4165 6.9652Z" fill="white"/>
</svg>
